<svg version="1.1" id="Layer_1" xmlns="http://www.w3.org/2000/svg" x="0px" y="0px" viewBox="0 0 576 576" width="500" height="500">
<g>
	<g>
		<path d="M214.7,506.38c-3.09-0.46-5.62-2.54-8.8-2.61c-0.7-0.02-1.21-0.52-1.77-0.88c-1.05-0.67-2.06-1.41-3.27-1.81
			c-1.37-0.46-2.64-0.98-2.94-2.69c-0.13-0.76-1-1.07-1.58-1.54c-3.24-2.62-6.55-5.16-9.02-8.59c-0.78-1.09-1.58-2.12-1.12-3.64
			c0.37-1.18-0.64-1.83-1.33-2.48c-1.58-1.48-3.23-2.88-4.87-4.3c-1.01-0.87-1.99-1.77-2.79-2.85c-0.62-0.83-1.12-1.75-0.88-2.77
			c0.32-1.4-0.32-2.31-1.36-2.93c-4.77-2.85-8.41-7.07-12.55-10.64c-5.92-5.1-11.11-10.96-14.83-18.03
			c-2.24-4.26-4.72-8.41-6.84-12.75c-0.29-0.6-0.65-1.16-0.88-1.78c-1.21-3.29-0.86-4.5,1.95-6.77c-0.22-1.57-0.44-3.21-1.06-4.75
			c-0.75-1.89-0.95-3.88-1.22-5.85c-0.26-1.87,0.44-3.54,1.85-4.69c1.5-1.22,1.59-2.49,1.04-4.17c-1.5-4.62-2.46-9.32-2.12-14.24
			c0.14-2.08,0.36-4.16,0.73-6.2c0.98-5.35,1.34-10.74,1.42-16.16c0.03-2.22,0.26-4.28,1.87-6.02c1.16-1.26,1.15-2.9,0.95-4.51
			c-0.28-2.24-0.4-4.48-0.44-6.73c-0.03-1.63,0.26-3.14,1.14-4.53c2.35-3.71,3.39-7.69,2.93-12.13c-0.32-3.14-0.71-6.31-0.83-9.43
			c-0.13-3.3-1.34-5.9-2.98-8.5c-0.59-0.94-0.79-2-0.79-3.11c0-4.22-0.83-8.2-2.7-12.06c-1.81-3.74-3-7.71-2.74-12.04
			c0.16-2.65-1.18-5.03-2.83-7.04c-4.07-4.95-7.67-10.29-12.13-14.92c-1.1-1.14-1.9-2.53-2.58-3.96c-0.51-1.07-0.95-2.2-0.64-3.37
			c0.65-2.44-0.35-4.42-1.64-6.3c-1.09-1.58-2.09-3.21-2.99-4.9c-0.51-0.97-1.01-1.99-1.02-3.06c-0.03-2.17-0.85-4.05-1.75-5.93
			c-1.55-3.25-2.65-6.63-3.39-10.15c-0.24-1.13-0.61-2.25-1.02-3.33c-3.41-8.94-5.01-18.27-5.97-27.74
			c-0.45-4.39-0.91-8.77-1.35-13.16c-0.34-3.41-0.18-6.79,0.15-10.21c0.69-7.26,3.07-14.13,4.5-21.21
			c1.27-6.28,2.22-12.63,3.77-18.84c1.25-4.99,2.09-10.13,4.1-14.9c2.11-4.99,6.32-7.32,11.46-8.16c1.32-0.22,2.64,0.15,3.89,0.68
			c3.24,1.35,6.31,3,9.07,5.21c0.77,0.62,1.48,1.34,2.57,1.7c7.37-3.91,14.93-7.57,20.79-13.9c4.59-4.96,9.69-9.41,14.95-13.63
			c5.28-4.24,11.22-7.49,17.39-10.27c3.34-1.5,6.79-2.76,10.19-4.12c5.83-2.33,12.01-3.36,18.05-4.92
			c5.08-1.31,10.27-2.09,15.4-3.16c4.92-1.04,9.49-3.08,14.26-4.56c8.75-2.72,17.53-5.37,26.61-6.67
			c6.62-0.95,13.28-0.71,19.94,0.04c8.85,1,17.62,2.57,26.5,3.34c3.16,0.27,6.23,1.09,9.33,1.68c8.45,1.59,16.93,2.83,25.51,3.08
			c5.23,0.15,10.16,1.72,15.25,2.46c6.68,0.98,12.6,3.93,18.31,7.08c4.15,2.3,7.74,5.72,10.54,9.77c2.9,4.2,5.46,8.55,7.1,13.42
			c0.73,2.15,1.13,4.33,1.4,6.57c0.5,4.05,0.95,8.09,0.82,12.19c-0.11,3.5,0.67,6.96,0.55,10.47c-0.14,4.29-0.65,8.46-2.94,12.24
			c-0.43,0.71-0.78,1.48-1.05,2.26c-3.22,9.21-9.2,16.47-16.06,23.19c-6.59,6.46-14.34,11.06-22.52,15.08
			c-1.88,0.92-3.6,2.06-5.29,3.63c2.58,3.67,4.01,7.77,4.41,12.31c1.9-0.07,3.31-0.98,4.64-1.89c3.79-2.58,7.84-4.73,11.78-7.05
			c6.83-4.04,13.14-8.78,19.35-13.69c3.45-2.73,7.14-5.16,10.77-7.65c4.7-3.23,9.88-5.48,14.93-8.02c3.44-1.73,6.46-4.11,9.09-6.94
			c6.7-7.22,14.2-13.57,21.48-20.17c2.12-1.92,4.74-3.13,7.34-4.2c3.7-1.53,7.53,0.62,8.7,4.7c1.25,4.38,1.29,8.87,1.1,13.38
			c-0.33,8.15-1.07,16.31-0.58,24.47c0.45,7.4,1.11,14.79,1.18,22.2c0.06,6.1-0.6,12.13-2.58,17.95c-2.3,6.77-4.6,13.54-6.9,20.31
			c-0.97,2.85-2.32,5.54-3.73,8.17c-3.1,5.81-5.76,11.82-8.56,17.77c-1.57,3.34-2.4,6.91-2.98,10.54c-0.48,3.01-1.22,5.86-3.76,7.91
			c-1.19,0.96-1.49,2.41-1.59,3.83c-0.21,2.83-1.65,4.78-3.95,6.29c-1.87,1.23-3.72,2.51-4.82,4.6c-0.48,0.91-1.4,1.38-2.43,1.61
			c-2.73,0.61-4.96,1.97-7.17,3.77c-2.27,1.83-5.06,2.96-5.85,6.16c-0.09,0.35-0.51,0.68-0.86,0.88c-2.16,1.25-2.93,3.25-3.19,5.6
			c-0.13,1.15-0.5,2.27-0.74,3.41c-0.47,2.25-1.65,3.98-3.66,5.12c-0.83,0.47-1.41,1.04-1.61,2.07c-0.99,5.25-3.53,9.92-6.36,14.29
			c-3.18,4.91-4.2,10.08-3.53,15.7c0.31,2.57,0.51,5.13,0.47,7.72c-0.02,1.54,0.27,2.95,1.56,4.03c1.09,0.91,1.42,2.21,1.47,3.59
			c0.09,2.33-0.03,4.65-0.52,6.67c0.24,0.66,0.58,0.66,0.91,0.73c2.06,0.43,2.64,0.96,2.58,2.97c-0.06,1.94,0.02,3.77,1.08,5.49
			c0.29,0.46,0.36,1.12,0.39,1.69c0.28,6.76,0.41,13.5-2.12,19.97c-0.66,1.69-1.25,3.44-1.3,5.38c0.84,0.86,2.23,1.14,2.67,2.47
			c0.46,1.4,0.34,2.81,0.24,4.21c-0.18,2.42-0.87,4.75-1.54,7.06c-0.38,1.31-0.51,2.34,0.97,3.16c1.38,0.77,1.69,2.19,1.35,3.71
			c-1.5,6.67-3.41,13.21-6.14,19.5c-0.3,0.68-0.67,1.36-1.12,1.94c-0.82,1.06-1.1,2.09-0.72,3.46c0.49,1.75-0.14,3.47-0.84,5.09
			c-2.15,5-5.32,9.22-9.72,12.46c-1.43,1.05-2.62,2.15-3.37,3.86c-0.85,1.93-2.53,3.29-4.3,4.44c-1.39,0.91-2.85,1.71-4.29,2.55
			c-1.59,0.93-3.08,1.8-3.35,3.99c-0.21,1.68-1.78,2.52-3.22,3.25c-3.19,1.63-6.47,3.06-9.8,4.38c-1.56,0.62-2.99,1.29-3.59,3.15
			c-0.4,1.23-1.7,1.75-2.9,2.18c-1.34,0.48-2.73,0.74-4.14,0.86c-3.99,0.34-7.89,1.23-11.8,2.05c-0.82,0.17-1.63,0.43-2.25,1.02
			c-2.43,2.32-5.48,3.78-8.09,5.85c-1.51,1.2-3.31,1.91-5.11,2.59c-0.8,0.3-1.49,0.65-1.72,1.62c-0.82,3.43-3.53,4.37-6.54,4.84
			c-0.98,0.15-1.98,0.13-2.89,0.19c-0.17,0.22-0.35,0.34-0.36,0.47c-0.24,3.57-1.55,4.64-5.16,4.19c-5-0.62-9.75-1.95-14.27-4.28
			c-3.92-2.02-8.19-2.76-12.61-1.86c-3.03,0.62-5.94,0.46-8.78-0.85c-1.47-0.68-2.99-0.75-4.63-0.48c-3.61,0.6-7.26,0.99-10.89,1.48
			c-1.61,0.21-3.18,0.04-4.61-0.73c-1.85-1-3.8-1.22-5.82-0.85c-2.95,0.54-5.92,0.98-8.91,1.17c-1.11,0.07-2.09,0.48-3.06,0.98
			c-3.23,1.67-6.53,2.39-10.07,0.83c-1.75-0.77-3.62-0.28-5.43,0.02c-1.83,0.31-3.65,0.43-5.47,0.09c-2.54-0.47-3.38-1.49-3.52-4.04
			C214.74,507.2,214.73,506.88,214.7,506.38z M184.85,235.7c-0.34-0.28-0.69-0.55-1.03-0.83c-1.27-1.31-2.52-2.63-4.34-3.2
			c-2.91-0.91-5.41-2.54-7.72-4.48c-0.35-0.3-0.91-0.52-0.59-1.27c1.49-0.3,2.71,0.48,3.86,1.24c1.52,1.01,2.99,2.13,4.39,3.3
			c0.98,0.82,2.02,1.07,3.24,0.94c2.46-0.27,3.85-1.82,4.65-3.98c0.93-2.49,0.84-5.08,0.42-7.64c-0.64-3.9-2.2-7.47-4.13-10.9
			c-0.5-0.89-1.3-1.76-1.02-3.03c1.62,0.46,2.46,1.94,3.94,2.57c-0.84-1.61-1.85-3.09-2.79-4.61c-0.6-0.97-1.4-1.28-2.51-1.21
			c-6.55,0.43-12.95-0.54-19.31-1.97c-0.4-0.09-0.88-0.35-1.2-0.23c-1.98,0.74-3.95,0.22-5.92,0.03c-2.51-0.25-5.01-0.17-7.44,0.47
			c-2.48,0.65-3.12,2.15-1.72,4.29c3.55,5.4,7.59,7.5,14.22,6.32c3.63-0.65,6.9-2.36,10.28-3.75c1.3-0.54,2.61-1.12,3.98-1.44
			c3.77-0.88,5.88,0.48,6.81,4.25c0.44,1.79,0.58,3.61,0.59,5.45c0.03,4.31-2.56,5.88-6.37,3.83c-2.06-1.11-3.83-2.66-5.73-4
			c-0.88-0.62-1.73-1.3-2.77-1.66c-1.51-0.53-2.12-0.29-2.74,1.18c-0.22,0.53-0.4,1.11-0.42,1.68c-0.39,9.78,4.26,19.76,15.87,22.76
			c3.26,0.84,6.56,0.98,9.82,0.95c1.17,2.68,0.67,3.5-2.02,3.48c-2.11-0.01-4.1-0.66-6.08-1.27c-4.13-1.27-8.23-2.61-12.34-3.93
			c-0.76-0.24-1.5-0.5-2.45,0.01c1.42,1.92,2.7,3.41,5.14,3.81c3.68,0.62,7.33,1.46,10.85,2.79c1.1,0.41,2.18,0.84,3.12,1.54
			c1.57,1.17,1.66,2.38,0.29,3.74c-0.83,0.83-1.87,1.36-2.9,1.92c-2.4,1.29-5.02,2.06-8.07,3.38c3.57,0.84,6.7-0.54,9.72,0.23
			c-0.08,1.26-0.91,1.77-1.56,2.36c-1.67,1.51-3.4,2.95-5.09,4.43c-0.43,0.38-1.06,0.74-1.2,1.23c-0.83,2.78-1.93,5.53-1.97,8.45
			c-0.01,0.92-0.21,1.55-0.71,2.19c-1.79,2.3-3.59,4.6-5.39,6.89c-2.32,2.94-4.75,5.8-6.75,8.99c-0.79,1.26-1.64,2.52-1.83,4.06
			c-0.18,1.46,0.24,2.01,1.68,2.16c1.06,0.11,2.11-0.12,3.09-0.4c0.99,2.59,2.88,4.16,4.89,5.92c-0.05-1.1-1.22-1.36-1.09-2.39
			c1.79-1.58,3.44-3.58,5.79-4.51c1.91-0.76,3.5-1.88,5.04-3.16c1.85-1.55,3.68-3.13,5.57-4.64c0.77-0.62,1.61-1.22,2.5-1.64
			c1.76-0.82,2.74-0.22,2.74,1.75c0,2.94-0.56,5.86-1.91,8.44c-1.34,2.58-2.92,5.03-3.82,7.82c-0.16,0.5-0.52,0.85-0.9,1.17
			c-1.65,1.42-2.49,3.3-3.02,5.34c-0.59,2.26-0.96,4.55-1.02,6.89c-0.12,4.16-0.23,8.33-0.52,12.49c-0.21,2.98-1.67,3.73-3.83,2.17
			c-2.22-1.6-2.26-1.65-4.5-0.11c-4.44,3.04-8.22,6.77-11.31,11.18c-0.57,0.82-1.06,1.69-1.39,2.64c-0.74,2.12-0.16,3.14,2.05,3.01
			c3.22-0.19,6.51-0.39,8.33-3.86c0.6-1.15,1.63-2.1,2.53-3.08c0.5-0.55,1.08-1.06,1.7-1.46c2.14-1.4,3.75-0.6,3.95,1.92
			c0.08,0.98-0.08,1.95-0.42,2.85c0.95,0.47,2.06,0.41,2.16,1.64c0.11,1.44,1.11,1.76,2.33,2.13c3.16,0.94,5.96,2.55,8.05,5.2
			c1.34,1.7,1.69,3.56,0.86,5.61c-0.76,1.89-2.01,3.45-3.4,4.89c-2.03,2.09-4.18,4.08-6.14,6.23c-1.74,1.91-3.45,3.91-2.68,6.87
			c0.13,0.51-0.12,1.15-0.27,1.71c-0.53,2.09-0.29,4.12,0.31,6.15c0.25,0.86,0.65,1.74,0.11,2.61c-0.95,0.59-1.93,0.45-2.93,0.33
			c-2.64-0.32-5.28-0.7-7.94-0.87c-3.34-0.22-6.04-1.52-8.27-4.03c-1.04-1.17-1.99-2.55-3.56-3.17c-1.06,2.29,1.05,3.77,1.25,5.66
			c-2.8,0.53-2.76,0.53-2.89,3.16c-0.12,2.52,0.15,4.99,0.7,7.43c1.48,6.56,4.79,12.21,8.88,17.41c1.68,2.14,3.14,4.26,3.4,7.04
			c0.01,0.12,0.16,0.22,0.36,0.49c2.37-3.21,4.99-6.02,7.96-8.65c-1.18,4.41-1.3,8.71-0.01,13.18c1.46-1.38,2.86-2.71,4.26-4.03
			c-0.48,4.28,0.53,8.24,1.16,12.45c1.89-2.23,3.19-4.78,5.74-6.53c-0.49,4.74-2.2,9.25-1.05,13.93c1.83-1.14,3.59-2.36,4.93-4.22
			c-0.52,3.2-0.52,6.3-0.06,9.59c1.94-1.48,3.7-2.9,4.36-5.34c0.62-2.28,0.75-4.64,1.07-7.29c1.87,1.7,0.88,3.7,1.32,5.74
			c6.12-1.64,10.31-5.3,13.49-10.44c-4.94-4.51-8.55-9.85-10.54-16.18c-1.55-4.92-2.74-9.94-3.71-15.02
			c-0.93-4.86-1.36-9.73-0.92-14.66c0.07-0.77-0.2-1.72,0.97-2.17c1.34,0.82,1.49,2.25,1.7,3.63c0.89,5.84,1.93,11.66,2.92,17.48
			c1.61,9.45,5.43,17.95,10.29,26.07c0.38,0.64,0.85,1.24,1.36,1.78c3.83,4.09,6.98,8.7,10.05,13.37c0.92,1.4,1.57,2.91,1.88,4.58
			c1.74,9.2,4.5,18.09,8.14,26.71c0.61,1.46,1.33,2.86,2.25,4.17c2.24,3.19,4.44,6.4,7.07,9.3c2.43,2.68,5.06,5.07,8.46,6.47
			c2.69,1.11,5.49,2.06,8.02,3.47c4.89,2.73,10.19,3.48,15.63,3.78c1.17,0.07,2.28,0.27,3.4,0.63c2.04,0.64,3.99,1.66,6.28,1.29
			c2.46-0.4,4.96-0.57,7.43-0.96c2.54-0.4,5.07-0.18,7.59,0.08c0.06-0.72-0.29-0.99-0.53-1.32c-0.24-0.34-0.53-0.65-0.74-1
			c-0.84-1.4-0.57-2.09,1-2.55c0.32-0.09,0.65-0.13,0.98-0.16c2.33-0.17,4.65-0.34,6.98-0.5c3.06-0.21,6.15-0.25,8.75-2.3
			c0.56-0.44,1.36-0.61,2.07-0.79c2.11-0.55,3.58,0.08,4.52,2.04c0.69,1.43,1.05,2.97,1.17,4.56c0.07,0.97-0.03,2,0.67,2.83
			c0.9-0.34,0.74-1.26,1.07-1.89c2.1-4.04-0.51-8.44-4.99-8.48c-4.35-0.04-8.61,0.8-12.91,1.25c-3.1,0.33-6.19,1-9.81,0.61
			c2.97-1.84,4.85-4.32,7.41-6.04c3.45-2.33,6.14-5.47,8.13-9.03c3.71-6.63,6.64-13.61,7.98-21.18c0.44-2.46,1.01-4.89,1.56-7.33
			c0.54-2.39,1.59-4.52,3.2-6.41c2.65-3.11,5.3-6.29,6.85-10.1c2.16-5.3,5.09-10.08,8.45-14.67c3.16-4.31,5.69-8.97,7.01-14.22
			c0.53-2.1,0.52-4.12-0.31-6.12c-0.54-1.3-1.1-2.61-1.79-3.84c-0.97-1.75-1.79-3.53-2.21-5.52c-0.37-1.78-1-3.53-1.96-5.1
			c-1.28-2.1-2.68-2.21-4.37-0.4c-1.09,1.16-1.68,2.66-2.58,3.92c-1.69,0-3.43-0.96-4.94,0.47c0.68,1.73,1.93,2.88,2.89,4.23
			c0.73,1.02,1.42,2.04,1.83,3.24c0.51,1.47,0.34,2.75-1.01,3.97c-2.21-1.39-4.14-3.14-5.64-5.15c-1.42-1.91-2.33-4.21-3.38-6.38
			c-0.35-0.73-0.68-1.52-0.68-2.38c0-1.38,0.38-1.8,1.76-1.83c1.12-0.02,2.17,0.33,3.08,0.87c1.88,1.13,3.25,0.32,4.58-0.78
			c-0.06-0.77-0.52-1.08-0.96-1.23c-1.77-0.6-2.44-1.98-3.08-3.6c-1.1-2.8-2.75-5.31-4.64-7.66c-0.73-0.91-1.65-1.79-2.01-2.84
			c-1.05-3.14-2.88-5.8-4.72-8.48c-0.13-0.19-0.56-0.46-0.08-0.75c2.91,1.81,5.78,3.65,8.71,5.37c1.11,0.65,1.74,1.42,1.79,2.74
			c0.1,2.55,1.05,4.87,2.22,7.08c0.92,1.74,1.91,3.46,3.97,4.88c-0.47-2.13-1.5-3.54-2.53-4.88c-2.51-3.28-3-7.05-3-11.08
			c-2.44-0.7-4.97-1.35-7.11-2.81c-3.03-2.05-6.13-4.06-7.06-8.03c-0.31-1.31-1.2-2.4-2.22-3.27c-3.95-3.39-6.8-7.76-10.32-11.53
			c-1.87-2-3.89-3.58-6.38-4.64c-3.55-1.51-7.31-2.16-11.07-2.86c-1.3-0.24-2.63-0.43-3.84-1.03c-0.84-0.42-1.12-1.18-0.37-1.79
			c1.72-1.41,3.41-2.79,6-2.1c11.96,3.17,21,9.76,25.69,21.57c1.02,2.57,3.04,4.19,5.23,5.68c-1.53-2.21-3.97-3.95-3.6-7.17
			c2-0.59,3.25,0.53,4.4,1.52c2.28,1.96,4.68,3.71,7.38,5.05c0.62,0.31,1.17,1.01,2.22,0.49c-2.22-2.23-4.37-4.39-6.53-6.56
			c-6.22-6.22-12.06-12.89-20.09-17.05c2.75,0.28,5.06,2.47,8.07,1.8c0.65-2.93-2.66-4.55-2.42-7.24c1.17-0.41,1.94,0.2,2.7,0.64
			c1.88,1.07,3.74,2.18,5.55,3.36c0.85,0.55,1.71,1.06,2.72,1.18c5.56,0.66,10.86,2.37,16.2,3.92c1,0.29,2,0.8,3.53,0.42
			c-2.1-3.34-4.96-5.76-7.42-8.61c1.69-2.62,2.79-5.39,3.88-8.17c1.19-3.07,1.9-3.17,4.27-0.75c0.08,0.08,0.24,0.07,0.42,0.11
			c-0.64-3.7-2.53-6.35-5.86-8.12c-3.6-1.92-7.37-3.47-11.1-5.09c-2.44-1.06-4.82-2.25-7.07-3.68c-5.86-3.71-7.14-9.95-8.73-15.96
			c-0.45-1.71,0.87-2.79,2.73-2.61c1.33,0.12,2.59,0.57,3.86,0.98c0.82,0.26,1.64,0.83,2.75,0.35c-0.65-1.9-1.9-3.35-3.08-4.81
			c-0.75-0.93-1-1.69-0.57-2.91c0.71-2.03,1.33-4.15,1.56-6.28c0.33-3.11,2.06-5.19,4.32-7c2.33-1.87,5.1-2.6,7.97-3.31
			c3.65-0.89,5.93,1.04,8.04,3.29c0.9,0.95,2.09,2.36,0.44,3.9c-0.37,0.35-0.11,0.92,0.14,1.39c0.31,0.57,1.08,0.79,1.17,1.68
			c-2.69,1.36-4.54,3.78-6.77,5.75c-4.74,4.2-6.08,11.46-3.4,16.61c1.48-0.48,2.5-1.57,3.53-2.67c2.98-3.18,6.31-5.92,10.12-8.07
			c1.62-0.92,3.34-1.38,5.26-1.22c4.18,0.34,7.11,2.47,9.28,5.94c1.66,2.64,2.49,5.61,3.65,8.46c0.29,0.71,0.42,1.43,0.06,2.33
			c-0.85,0.11-1.39,0.77-2.03,1.44c-2.23,2.39-4.58,4.75-8.13,4.89c-6.28,0.25-11.85-2.07-17.22-5.02c-1.67-0.92-2.78-2.6-4.79-3.49
			c0.02,2.78,1.59,4.36,3.61,5.37c3.34,1.67,6.75,3.22,10.24,4.54c5.71,2.17,12.02,2.65,17.3,6.07c0.2,0.13,0.47,0.19,0.71,0.24
			c4.81,0.86,9.26-0.11,13.29-2.83c1.07-0.72,1.82-1.66,0.79-3.14c-0.67-0.97,0.16-2.85,1.39-3.56c-2.98-4.03-5.17-8.54-7.88-12.73
			c-1.27-1.96-2.48-3.94-3.98-5.74c-1.35-1.62-2.89-2.91-4.86-3.77c-2.51-1.1-4.92-2.43-7.34-3.72c-0.74-0.4-1.68-0.75-1.74-1.84
			c0.57-0.41,1.05-0.04,1.47,0.07c4.36,1.17,8.97,1.71,12.22,5.51c1.25,1.46,3.17,2.13,5.09,2.45c1.98,0.33,2.75-0.27,3.11-2.33
			c0.06-0.35,0.14-0.64,0.36-0.89c1.11-1.27,0.74-2.61,0.27-3.99c-0.56-1.62-1.59-3.01-2.35-4.52c0.9-0.55,1.58,0.77,2.48,0.01
			c-2.91-2.14-5.98-3.97-9.08-5.73c-0.49-0.28-1.11-0.31-1.67-0.45c-6.09-1.42-11.96-3.47-17.46-6.47
			c-0.83-0.45-1.81-0.88-1.91-2.02c1.37-1.1,2.99,0.26,4.48-0.66c-1.16-1.74-2.81-2.03-4.49-2.03c-2.07-4.19-0.94-6.46,3.38-6.85
			c3.16-0.28,6.32-0.12,9.47,0.29c3.3,0.43,6.61,0.81,9.92,1.09c1.44,0.12,3,0.31,4.21-1.18c-1.39-2.32-2.69-4.6-5.72-5.07
			c-0.89-0.14-1.74-0.57-2.59-0.89c-6.14-2.35-12.41-4.4-18.76-6c-6.52-1.64-13.09-3.14-19.7-4.47c-8.62-1.73-17.34-2.11-26.05-2.65
			c-4.81-0.3-9.66-0.11-14.49-0.05c-7.41,0.1-14.81,0.05-22.22,0.44c-8.43,0.44-16.76,1.26-24.84,3.84
			c-4.36,1.4-8.76,2.7-13.08,4.19c-7.01,2.42-13.96,4.99-20.3,8.95c-2.2,1.37-3.22,1.09-4.44-1.3c-0.8-1.57-1.28-3.23-1.59-5.02
			C188.56,237.84,186.9,236.36,184.85,235.7z M199.39,181.83c1.25-0.06,2.15-0.88,3.08-1.53c8.29-5.77,17.58-8.95,27.42-10.78
			c2.43-0.45,4.8-1.2,7.12-1.79c0.09-0.84-0.21-1.35-0.45-1.88c-0.87-1.99-2.27-3.66-3.21-5.62c-1.79-3.74-3.65-7.46-6.04-10.91
			c-3.13-4.53-5.62-9.43-7.42-14.65c-3.39-9.83-4.74-20.06-6.04-30.3c-0.52-4.09-1.17-8.09-4.05-11.32
			c-0.26-0.29-0.47-0.69-0.16-1.11c0.16-0.05,0.32-0.15,0.46-0.13c0.24,0.02,0.48,0.1,0.71,0.19c2.82,1.08,5.05,3.04,6.74,5.4
			c2.32,3.24,4.38,6.72,5.89,10.42c3.98,9.74,6.67,19.84,8.12,30.28c0.7,5.02,1.28,10.12,3.18,14.86c1.94,4.84,4.83,9.26,6.58,14.35
			c18.79-2.42,37.55-2.67,56.13-2.46c0.5-0.54,0.48-0.97,0.45-1.37c-0.27-3.34,0.05-6.64,0.53-9.95c0.77-5.27,1.41-10.56,2.77-15.73
			c2.04-7.73,5.85-14.67,9.64-21.61c3.15-5.77,5.39-11.79,6.09-18.35c0.03-0.27-0.04-0.71,0.62-0.69c1.54,1.96,1.91,4.36,1.69,6.74
			c-0.4,4.32-1.24,8.59-3.04,12.57c-1.61,3.56-3.4,7.05-5.13,10.55c-2.55,5.16-4.85,10.39-5.8,16.14c-0.72,4.36-1.17,8.74-1.82,13.1
			c-0.42,2.85-0.91,5.7-1.39,8.67c3.32,0.06,6.45,0.44,9.61,0.59c10.05,0.49,20.11,0.87,29.99,3.11c1.42,0.32,2.85,0.86,4.47,0.77
			c0.18-0.49,0.36-0.94,0.5-1.41c2.47-8.34,5.85-16.27,10.3-23.76c0.93-1.57,1.88-3.12,2.89-4.66c2.51-3.81,5.52-7.3,7.45-11.51
			c1.7-3.73,2.75-7.67,4.14-11.5c1.02-2.82,2.05-5.62,3.46-8.28c3.38-6.38,9.05-10.29,14.9-14.03c0.18-0.11,0.32-0.09,0.47,0.12
			c-1.67,2.46-3.31,4.94-5.3,7.21c-1.92,2.18-3.59,4.57-4.99,7.16c-3,5.54-4.79,11.5-6.38,17.55c-0.79,3-1.95,5.89-3.77,8.38
			c-6.26,8.6-10.89,18.11-15.43,27.65c-1.37,2.89-2.3,5.98-3.48,9.08c3.4,1.41,6.68,2.32,9.57,4.38c2.72-4.79,6.72-7.91,10.92-10.81
			c4.52-3.13,9.13-6.12,13.66-9.23c2.39-1.64,4.96-2.73,7.86-2.93c1.07-0.07,1.96-0.4,2.67-1.14c4.25-4.45,7.76-9.49,9.73-15.27
			c1.57-4.59,3.12-9.25,3.37-14.27c0.26-5.35,0.07-10.65-0.73-15.91c-0.52-3.44-1.7-6.78-2.3-10.22c-0.36-2.09-0.81-4.07-1.97-5.83
			c-1.89-2.85-3.73-5.76-6.2-8.13c-2.22-2.12-4.42-4.5-7.09-5.86c-5.31-2.69-10.59-5.64-16.73-6.29c-4.05-0.43-7.93-1.98-12.04-2.08
			c-8.02-0.2-15.9-1.54-23.78-2.89c-6.14-1.05-12.22-2.5-18.42-3.26c-7.43-0.92-14.86-1.9-22.29-2.81
			c-5.48-0.68-10.99-0.86-16.43,0.18c-7.77,1.48-15.47,3.25-23.1,5.36c-6.43,1.77-12.6,4.28-19,6.11c-4.89,1.4-9.98,1.76-14.87,3.22
			c-4.3,1.28-8.87,1.71-13.09,3.2c-8.08,2.85-16.1,5.92-23.57,10.23c-2.38,1.37-4.81,2.71-6.87,4.54
			c-4.99,4.42-10.19,8.62-14.71,13.53c-4.59,5-10.09,8.63-16.07,11.69c-2.44,1.25-4.93,2.44-7.05,4.24
			c-3.66,3.11-6.64,6.67-8.69,11.11c-2.57,5.55-4.79,11.18-5.06,17.34c-0.16,3.57-1.35,6.65-3.42,9.47
			c-0.49,0.67-0.96,1.36-1.45,2.03c-2.52,3.43-3.9,7.32-4.57,11.49c-0.18,1.09-0.03,2.13,0.18,3.21c1.84,9.3,13.12,16.39,23.05,13.7
			c1.6-0.44,3.25-0.89,4.92-0.69c3.43,0.42,6.82,0.1,10.21-0.29c1.27-0.15,2.42,0.09,3.76,0.34c-1.95,2.68-4.89,3.38-8.12,4.5
			c12.37,3.19,24.26,5.01,36.44,2.71c1.6-5.66,4.29-10.41,9.35-13.51c0.24-0.15,0.34-0.54,0.51-0.81L199.39,181.83z M367.53,238.37
			c0.34-0.54,0.05-0.91-0.06-1.29c-1.42-4.88-2.67-9.78-2.7-14.93c-0.01-1.99-0.37-3.98-0.57-5.97c-0.5-4.99-0.67-10.02,0.01-14.96
			c0.45-3.29-0.23-5.17-2.98-7.25c-5.79-4.38-12.31-6.9-19.13-8.82c-4.72-1.33-9.61-2-14.4-3.05c-3.84-0.84-7.71-1.38-11.59-1.72
			c-7.54-0.67-15.14-0.36-22.7-0.34c-6.23,0.01-12.48-0.07-18.72,0.15c-7.16,0.25-14.31,0.53-21.46,1.13
			c-8.17,0.68-16.13,2.42-23.92,4.93c-7.7,2.47-15.25,5.32-22.45,9.02c-3.63,1.86-6.95,4.19-9.87,7.15c1.21,2.43,1.03,4.78,0.54,7.2
			c-1.63,8.13-2.05,16.34-1.57,24.61c0.09,1.54,0.28,3.06,1.03,4.66c2.41-1.7,4.72-3.18,7.18-4.4c9.6-4.78,19.81-7.86,30.15-10.42
			c9.08-2.25,18.42-2.75,27.76-2.87c5.83-0.08,11.66-0.05,17.49-0.01c10.75,0.07,21.47,0.43,32.14,1.9
			c2.65,0.37,5.21,1.14,7.83,1.48c4.81,0.61,9.38,2.21,14.1,3.18c3.59,0.74,7.07,1.86,10.59,2.85c6.89,1.94,13.61,4.39,20.41,6.61
			C365.64,237.53,366.47,238.3,367.53,238.37z M420.77,221.23c1.22-1.33,2.78-1.89,4.27-2.52c5.49-2.36,11.07-4.52,16.32-7.42
			c3.08-1.7,6.03-3.57,8.12-6.48c2.66-3.72,5.27-7.47,7.87-11.24c1.04-1.51,1.94-3.12,2.51-4.86c0.9-2.74,0.09-3.83-2.79-3.47
			c-3.75,0.46-7.22,1.9-10.45,3.81c-3.07,1.82-6.06,3.8-9.05,5.75c-2.16,1.41-4.35,2.78-6.14,4.67c-2.31,2.44-2.41,3.66-0.61,6.56
			c0.07,0.11,0.01,0.31,0.01,0.6c-2,0.92-4.14,1.01-6.3,0.91c-1.92-0.09-3.88-0.23-5.71,0.27c-1.6,0.44-3.08,0.39-4.65,0.13
			c-2.4-0.4-4.81-0.29-7.18,0.33c-3.38,0.89-5.17,3.2-5.22,6.69c-0.02,1.43,0.2,2.81,0.7,4.15c1.43,3.82,3.76,7,6.82,9.68
			c1.97,1.72,4.16,3.06,6.69,3.74c4.77,1.28,7.39-0.68,7.52-5.58c0.03-1.25,0-2.49,1.01-3.44
			C423.49,222.52,421.92,222.44,420.77,221.23z M449.58,226.93c-0.17,0.91,0.47,1.32,0.84,1.82c1.26,1.7,1.29,3.34,0,5.03
			c-0.61,0.79-1.17,1.62-1.67,2.49c-1.91,3.35-3.48,6.83-3.31,10.81c0.1,2.33,1.3,2.95,3.26,1.71c0.56-0.35,1.09-0.78,1.55-1.25
			c2.65-2.68,5.03-5.65,6.56-9.06c2.92-6.53,6.25-12.85,9.41-19.25c3.13-6.35,5.73-12.9,7.01-19.91c0.12-0.64,0.55-1.56,0.01-1.89
			c-1.71-1.01-1.1-2.59-1.22-3.98c-0.09-0.97-0.02-1.96-0.02-2.95c-0.53,1.94-1.16,3.75-1.5,5.62c-0.88,4.89-3.11,9.07-6.46,12.7
			c-2.98,3.22-6.64,5.53-10.31,7.82c-2.6,1.62-5.31,3.1-7.28,5.56c-0.46-0.2-0.84-0.35-1.2-0.53c-4.97-2.4-6.46-1.54-8.42,2.14
			c-1.05,1.98-2.94,2.6-5.12,2.19c-1.04-0.19-2.07-0.44-3.1-0.66c0.1,0.48,0.41,0.63,0.62,0.87c0.77,0.87,2.18,0.32,2.89,1.29
			c0.8,1.11-0.79,2.21,0.05,3.46c1.95,0.62,4.47,0.14,6.23,2.16c-1.67,1.53-3.55,1.21-5.34,1.25c-0.9,0.02-1.8-0.23-2.7,0.16
			c-5.93,2.58-12.14,2.38-18.4,1.89c-3.9-0.3-7.81-0.59-11.72-0.58c-4.7,0.01-9.29,0.73-13.33,3.43c-2.04,1.36-3.68,3.28-6.27,4.14
			c0.72,0.39,1.12,0.21,1.52,0.13c6.66-1.42,13.2-3.33,19.91-4.55c1.29-0.24,2.55-0.4,3.72-0.08c0.2,0.73-0.09,1.03-0.42,1.29
			c-1.51,1.24-3.12,2.15-5.21,2c-1.41-0.1-2.83,0.03-4.24,0.06c-1.35,0.03-2.67,0.18-4.22,0.78c3.34,1.71,6.94,1.48,10.51,3.05
			c-2.05,0.27-3.53,0.08-5.01-0.14c-3.35-0.51-6.61-0.47-9.61,1.47c-1.2,0.77-2.59,1.17-4.46,1.7c8.54,0.82,16.5,0.74,24.39-0.86
			c1.96-0.4,3.91-0.96,5.52-2.18c1.09-0.83,2.27-1.34,3.54-1.75c5.62-1.81,11.1-3.97,16.41-6.56c2.62-1.28,5.18-2.68,7.32-4.7
			c2.85-2.69,2.56-4.76-0.85-6.62c-0.61-0.33-1.42-0.41-1.69-1.24c2.81-1.3,14.26-0.43,16.6,1.27
			C452.77,226.99,451.05,226.14,449.58,226.93z M394.71,430.77c0.42,1.24,0.77,2.42,1.22,3.57c0.33,0.84,0.67,1.84,1.76,1.87
			c0.97,0.02,1.37-0.86,1.73-1.6c1.44-2.94,2.28-6.09,2.56-9.32c0.31-3.68-2.35-5.75-5.94-4.87c-0.4,0.1-0.81,0.2-1.19,0.36
			c-4.37,1.81-8.23,4.42-11.32,7.98c-1.45,1.67-3.08,2.76-5.13,3.31c-2.49,0.66-5.04,1-7.62,1.18c-4.07,0.29-8.15,0.43-12.18,1.03
			c-0.9,0.13-1.75,0.28-2.28,1.25c-2.67,4.93-7.15,7.21-12.42,8.25c-1.44,0.29-2.91,0.43-4.39,0.64c-0.34,2.53,0.75,4.52,1.9,6.42
			c1.99,3.27,4.37,6.12,8.59,6.5c0.53,0.05,0.93,0.33,1.3,0.68c1.42,1.33,3.16,1.74,5.04,1.84c3.64,0.2,7.12-0.44,10.43-1.93
			c0.47-0.21,1.18-0.26,1.12-1.08c-1.44-0.46-2.86,0.24-4.4-0.09c2.02-0.52,3.71-1.45,4.85-3.14c1.03-1.52,1.74-3.21,2.13-5.02
			c0.45-2.11,0.85-4.23,1.42-6.31c0.55-2.03,0.82-2.13,2.76-1.75c4.23,0.84,7.9-0.01,10.85-3.37c1.32-1.5,2.66-2.98,4.23-4.24
			C391.19,431.77,392.75,430.93,394.71,430.77z M364.18,188.92c-0.06-1.79-0.77-3.28-1.39-4.8c-0.15-0.36-0.46-0.77-0.8-0.91
			c-3.39-1.39-6.27-3.72-9.72-5.08c-9.7-3.82-19.94-4.48-30.12-5.39c-5.03-0.45-10.09-0.79-15.18-0.75
			c-3.98,0.03-7.96,0.19-11.95,0.14c-7.07-0.08-14.14,0.05-21.21-0.1c-3.74-0.08-7.49-0.11-11.21,0.07
			c-7.15,0.36-14.29,0.83-21.42,1.5c-6.66,0.62-13.15,2.06-19.57,3.74c-9,2.36-16.32,7.77-23.17,13.83
			c-1.54,1.36-2.89,3.03-3.4,5.67c1.68-1.82,3.13-3.19,4.84-4.25c1.7-1.05,3.39-2.12,5.15-3.06c7.98-4.24,16.55-6.96,25.17-9.51
			c9.53-2.83,19.25-4.57,29.2-5.04c9.65-0.45,19.3-0.49,28.95-0.29c2.25,0.05,4.46-0.47,6.73-0.22c4.23,0.47,8.49,0.26,12.72,0.06
			c3.76-0.18,7.49,0.1,11.21,0.37c4.31,0.31,8.57,1.12,12.83,1.92c5.32,1,10.67,1.97,15.71,3.94
			C353.27,183,359.12,185.07,364.18,188.92z M373.64,475.22c1.05,0.85,1.76,0.22,2.45-0.33c3.07-2.42,6.17-4.79,9.53-6.79
			c0.93-0.55,2.02-1.2,2.35-2.17c0.9-2.7,3.17-3.93,5.2-5.49c1.42-1.09,2.87-2.2,3.75-3.94c-2.32-2.43-4.73-4.61-7.37-6.89
			c-1,2.93-2.21,5.37-3.5,7.79c-2.23,4.18-4.87,8.11-7.23,12.22c-0.75,1.31-1.62,2.47-2.96,3.28
			C374.98,473.42,374.1,474.07,373.64,475.22z M184.27,470.46c-0.61,2.45,0.11,3.82,2.03,5.21c3.01,2.18,5.48,5.01,7.4,8.28
			c0.94,1.6,2.07,3.17,4.12,3.81c0.05-2.5,2.39-1.26,3.41-2.35c-1.16-1.59-0.94-3.42-0.8-5.26c0.15-1.96-0.05-2.27-1.9-2.95
			c-1.09-0.4-2.22-0.69-3.35-0.94c-0.66-0.15-1.31-0.22-1.72-0.95c0.07-1.81,1.87-3.01,2.09-4.93c-3.39,0.62-6.29,2.73-10,2.33
			c0.91-2.21,3.08-2.86,3.81-4.78C187.8,469.08,186.01,469.71,184.27,470.46z M398.23,378.36c-1.1,0.33-2.2,0.69-3.31,0.97
			c-3.75,0.95-6.8,3-9.36,5.85c-3.76,4.19-6.57,8.96-8.74,14.13c-0.25,0.61-0.38,1.27-0.51,1.92c-0.12,0.57-0.21,1.17,0.96,1.64
			c2.87-4.4,5.55-9.08,9.01-13.17C389.83,385.51,393.71,381.63,398.23,378.36z M331.08,292.51c-0.13,4.08,2.7,7.49,6.79,8.55
			c3.07,0.8,7.39-0.24,9.3-4.33c1.92-4.11,1.56-8.71-1.46-11.41c0.21,0.98,0.39,1.77,0.56,2.56c0.48,2.34,0.35,4.63-0.69,6.81
			c-2.1,4.41-6.68,5.51-10.55,2.54C333.36,295.96,332.18,294.3,331.08,292.51z M403.41,229.75c-3.23-2-6.14-1.92-9.01-0.43
			c-3.81,1.98-6.75,5.11-10.04,7.83C390.97,235.62,397.13,233.05,403.41,229.75z M383.86,255.05c1.54,1.24,2.56,1.55,4.82,1.67
			c3.75,0.2,7.48-0.1,11.19-0.54c4.11-0.49,8.21-1.14,12.16-2.46c0.7-0.23,1.66-0.25,1.84-1.65
			C403.8,252.38,394.18,255.76,383.86,255.05z M383.68,367.38c1.46-6.37,2.62-13.32,6.6-19.34c1.05-1.59,2.01-3.25,2.97-4.9
			c1.54-2.62,3.04-5.26,4.56-7.9c-1.22,0.58-1.95,1.55-2.65,2.53c-1.45,2.03-2.9,4.06-4.31,6.12
			C385.92,351.1,382.04,358.65,383.68,367.38z M160.29,242.75c3.8-0.51,3.75-2.51,2.37-5.13c-1.24-2.37-2.87-4.45-4.63-6.44
			c-0.88-1-1.67-2.13-2.99-2.95C155.65,233.76,158.04,240.34,160.29,242.75z M385.77,400.12c-6.52,3.81-9.84,9.71-13.42,15.39
			c-0.3,0.48-0.56,1.06,0.08,1.53C374.7,416.21,382.31,406.63,385.77,400.12z M380.91,358.12c-4.61,3.11-5.63,8.38-3.69,18.19
			C378.43,370.37,379.66,364.3,380.91,358.12z M393.19,392.14c1.37-0.97,10.37-10.81,10.85-11.77
			C397.2,382.15,392.62,387.04,393.19,392.14z M398.22,303.08c-1.23-3.24-2.48-6.47-3.7-9.71c-0.64-1.71-1.36-3.38-2.29-4.94
			c-0.45-0.75-0.9-1.63-2.05-1.29C389.61,290.63,393.64,298.87,398.22,303.08z M365.45,253.32c-5.03-4.5-15.15-6.45-19.19-3.81
			C352.6,250.77,358.88,252.01,365.45,253.32z M336.03,291.9c1.04-0.38,1.85,0.02,2.5,0.42c2.24,1.36,4.41-0.36,4.56-3.27
			c0.1-1.99-1.51-3.16-3.47-2.62C337.08,287.13,336.09,288.54,336.03,291.9z M373.35,168.51c5.22-1.79,18.05-11.48,19.7-14.71
			C385.86,157.68,380.22,163.49,373.35,168.51z M388.64,402.84c3.56-3.42,6.33-7.48,9.34-11.34
			C392.48,393.31,389.78,397.43,388.64,402.84z M329.75,364.14c-1.32-2.19-2.97-4.25-5.16-5.21c-1.83-0.8-4.05-1-6.11-1.52
			C321.98,360.12,325.45,362.82,329.75,364.14z M373.11,238.95c-0.67,1.27-0.75,2.41-0.45,3.59c0.85,0.25,1.56,0.36,2.29-0.25
			C375.16,240.81,374.05,240.03,373.11,238.95z"/>
		<path d="M184.85,235.7c0.27,1.13,1.65,2,0.79,3.51c-1.64-0.21-3.03-1.18-4.56-1.71c-3.6-1.26-7.29-2.3-10.58-4.31
			c-2.35-1.43-3.97-3.31-3.39-6.33c0.03-0.14,0.16-0.26,0.43-0.67c2.06,4.53,6.37,5.44,10.4,6.75c1.96,0.64,3.82,1.62,5.89,1.93
			C184.16,235.15,184.5,235.42,184.85,235.7z"/>
		<path d="M199.47,181.75c-3.92-1.86-7.46-4.34-11-6.8c-2.71-1.89-5.73-3.07-8.73-4.14c-3-1.08-6.15-1.78-9.38-2.31
			c-8.08-1.32-15.77-3.83-22.11-9.5c-2.2-1.97-3.85-4.35-5.82-6.48c-0.41-0.44-0.59-1.01,0.03-1.68c1.49,0.15,2.61,1.18,3.77,2.01
			c5.01,3.61,10.6,5.61,16.62,6.98c7.99,1.81,16.12,3.45,23.27,7.83c4.36,2.67,8.35,5.76,11.46,9.88c0.97,1.28,1.77,2.62,1.8,4.29
			L199.47,181.75z"/>
		<path d="M239.59,406.52c-0.5,1.2-1.76,1.79-2.27,3.17c5.2,0.72,9.9-1.94,14.95-1.94c0,1.29-1.28,1.77-1.6,2.99
			c4.11-0.63,7.16-3.54,11.1-4.67c-0.43,2.13-1.31,3.92-3.23,5.4c1.21,0.44,2.04,0,2.79-0.3c2.71-1.05,5.5-1.93,8.17-3.04
			c2.59-1.08,4.97-0.99,7.49-0.02c2.23,0.86,4.34,2.02,6.87,2.7c0.1-1.33-1.02-2.2-0.9-3.55c4.4,1.63,7.43,5.12,11.61,7.43
			c-0.8-2.32-1.78-4.31-2.08-6.64c3.65,2.48,5.76,6.32,9.22,8.98c0.34-1.18-0.61-1.97-0.49-3.14c2.01,1.41,4.19,2.34,6.06,3.82
			c1.18,0.94,2.55,1.57,3.84,2.32c3.38,1.96,6.48,1.35,9.59-0.68c6.15-4.02,11.38-8.9,15.08-15.31c0.58-1,1.23-2,2.01-2.84
			c1.36-1.48,3.08-1.87,4.24-1.15c1.16,0.73,1.94,2.61,1.23,4.25c-1.49,3.45-2.29,7.12-3.7,10.59c-2.09,5.12-5.54,9.45-8.22,14.22
			c-3.05,5.42-7.04,10.08-11.37,14.49c-0.48,0.49-0.89,0.93-0.95,1.67c-0.53,7.18-2.7,14.03-4.11,21.04
			c-2.04,10.14-7.92,17.87-15.68,24.22c-5.75,4.7-12.76,6.27-20.07,6.45c-2.83,0.07-5.64,0.08-8.47,0.23
			c-3.49,0.18-7.01-0.53-10.3-1.6c-4.82-1.57-9.41-3.72-13.43-6.97c-4.39-3.55-7.94-7.69-10.85-12.57c-4.18-6.99-7-14.53-9.66-22.13
			c-1.59-4.56-2.59-9.31-2.49-14.2c0.03-1.3-0.61-2.26-1.41-3.09c-5.15-5.43-8.74-11.94-12.69-18.19
			c-2.03-3.21-3.01-6.84-3.95-10.47c-0.5-1.93-0.7-3.94-1.21-5.86c-1.05-3.95-0.82-7.92-0.39-11.91c0.18-1.7,0.74-3.25,1.85-4.56
			c1.3-1.52,2.71-1.4,3.88,0.18c2.24,3.01,4.12,6.25,6.16,9.38c2.41,3.71,5.14,7.16,8.22,10.34c2.09,2.16,4.55,2.89,7.5,2.28
			C234.48,407.34,237.02,406.97,239.59,406.52z M272.27,488.81c-0.89-0.87-1.4-1.83-1.77-2.82c-1.75-4.61-2.96-9.32-3.17-14.3
			c-0.25-5.73,0.95-11.28,1.85-16.85c1.29-7.98,2.17-16,3.13-24.01c0.71-5.97,0.1-11.98,0.01-17.98c0-0.34-0.11-0.66-0.76-0.83
			c-8.36,4.03-17.3,6.66-26.73,6.74c-0.17,0.38-0.29,0.52-0.3,0.67c-0.36,5.15-1.95,6.8-7.07,6.99c-3.28,0.13-5.5,1.62-6.74,4.63
			c-2.05,5-2.31,10.18-1.57,15.46c0.51,3.64,1.51,7.16,2.74,10.62c3.76,10.61,8.53,20.55,17.23,28.21
			c5.17,4.56,11.27,6.91,17.8,7.69c5.56,0.66,11.27,0.61,16.92-0.28c5.31-0.84,10.19-2.61,14.28-6.05
			c7.58-6.39,12.2-14.63,14.24-24.29c0.91-4.31,1.59-8.67,2.36-13.01c0.44-2.48,0.38-4.98,0.19-7.47c-0.17-2.23-1.24-3.91-3.29-4.95
			c-1.11-0.56-2.15-1.26-3.23-1.89c-1.51-0.89-2.44-2.15-2.88-3.89c-0.45-1.77-1.13-3.48-1.68-5.22c-0.24-0.78-0.69-1.27-1.48-1.53
			c-4.13-1.34-7.98-3.32-11.87-5.21c-5-2.42-9.95-4.95-14.89-7.43c-0.48,0.59-0.18,1.08-0.12,1.54c0.87,7.05,1.04,14.06,0.14,21.16
			c-1.18,9.42-2.53,18.81-4.14,28.15c-1.18,6.83-1.2,13.56,0.3,20.33C272.18,484.83,272.59,486.71,272.27,488.81z M235.42,417.04
			c-0.21,2.46,0.87,4.04,2.32,5.45c2.5-1.07,2.67-1.37,2.42-4.2C238.74,417.7,237.22,417.34,235.42,417.04z"/>
		<path d="M243.65,361.32c0.12-1.66,0.12-3.34,0.39-4.97c0.87-5.2,3.67-8.98,8.32-11.56c2.77-1.53,5.42-3.24,8.47-4.19
			c5.32-1.66,10.73-1.19,16.06-0.31c3.22,0.53,6.41,0.85,9.66,0.79c7.09-0.13,13.01,2.79,17.78,7.74
			c8.14,8.45,9.78,18.36,5.41,29.19c-3.69,9.13-10.56,14.93-19.71,18.15c-3.54,1.25-7.06,2.54-10.09,4.81
			c-1.36,1.02-2.48,0.98-3.76-0.13c-0.5-0.43-1.06-0.81-1.46-1.33c-1.77-2.31-4.2-3.68-6.66-5.13c-3.71-2.18-7.59-4.07-10.96-6.86
			c-4-3.3-7.12-7.18-9.25-11.89c-0.55-1.21-1.28-2.33-1.91-3.5C244.14,368.76,243.19,365.19,243.65,361.32z M278.67,360.3
			c-0.65,2.4-1.54,4.7-1.85,7.19c-1.01,8.29-0.89,16.62-1,24.94c-0.01,0.42-0.01,0.83,0.03,1.25c0.06,0.76,0.12,1.59,1.15,1.62
			c0.94,0.03,1.28-0.72,1.41-1.47c0.26-1.47,0.44-2.96,0.61-4.45c0.75-6.38,0.32-12.81,0.79-19.21
			C280.07,366.81,279.86,363.52,278.67,360.3z M270.35,368.26c1.43-4.4,0.57-7.35-2.73-9.32c-3.62-2.16-7.46-1.95-11.3-0.65
			c-0.89,0.3-1.68,0.92-1.35,2.05c0.31,1.05,1.26,0.93,2.08,0.89c1.74-0.08,3.48-0.26,5.22-0.04c2.36,0.3,4.25,1.26,5.51,3.37
			C268.51,365.77,269.38,366.88,270.35,368.26z M300.12,377.17c-3.22-1.12-6.5-1.64-9.34-3.39c-1.21-0.75-2.27-1.66-3.26-2.67
			c-0.64-0.65-1.4-0.93-2.23-0.36c-0.78,0.53-0.99,1.34-0.72,2.19c0.2,0.62,0.49,1.25,0.9,1.75c2.24,2.75,5.1,4.53,8.64,4.88
			C296.4,379.82,298.41,378.86,300.12,377.17z M269.6,372.01c-2.19,0.07-4.09-0.82-6.12-1.13c-2.43-0.37-4.68-1.08-6.42-2.95
			c-0.46-0.5-1.04-0.87-1.76-0.47c-0.64,0.35-0.91,0.93-0.95,1.64c-0.07,1.16,0.48,2.07,1.17,2.93
			C259.16,376.51,265.7,376.57,269.6,372.01z M304.41,368.38c-1.25-2.26-2.09-4.42-4.32-5.14c-4.38-1.41-8.5-0.61-12.27,1.98
			c-0.79,0.54-1.33,1.38-0.76,2.35c0.55,0.94,1.43,0.58,2.21,0.28C294.24,365.94,299.16,366.43,304.41,368.38z"/>
		<path d="M240.54,300.27c-1.07-0.87-2.19-0.28-3.23-0.84c0.38-1.65,0.68-3.35,1.16-5c1.31-4.57,1.42-9.36,2.58-13.96
			c0.78-3.09-0.06-5.93-1.83-8.52c-0.87-1.28-1.9-2.45-2.65-4.09c1.18,0.15,1.75,0.97,2.89,1.31c-0.87-1.75-2.03-2.88-3.47-3.85
			c-3.35-2.27-5.17-5.36-4.63-9.53c0.51-3.89,3.72-6.33,7.61-5.83c2.35,0.3,4.47,1.21,6.49,2.41c0.62,0.37,0.91,0.83,1.05,1.55
			c0.75,3.69,2,7.17,4.29,10.26c1.17,1.58,0.72,3.53,0.44,5.33c-0.18,1.14-0.48,2.26-0.81,3.74c2.11-1.83,2.89-4.53,5.44-5.53
			c0.86,0.95,1.03,2,1.02,3.09c-0.03,3.83,0.35,7.73-0.23,11.48c-1.08,6.95-3.31,13.58-7.99,19.07c-2.4,2.81-5.59,4.4-9.16,5.26
			c-1.05,0.25-2.06,0.2-2.62-0.85c-0.56-1.03,0.27-1.68,0.86-2.37C238.63,302.35,240.16,301.89,240.54,300.27z"/>
		<path d="M234.11,280.92c0.35-0.31,0.57-0.75,1.06-0.52c0.77,0.35,1.54,0.76,1.83,1.6c0.87,2.53,1.09,5.16,1.01,7.81
			c-0.02,0.7-0.52,1.22-1.05,1.64c-1.83,1.44-3.64,2.9-5.54,4.24c-1.07,0.76-2.31,1.27-3.72,0.89c0.14-1.02,1.05-1.52,1.39-2.39
			c-0.11-0.07-0.24-0.23-0.31-0.2c-5.22,1.64-10.23,0.71-15.02-1.49c-3.3-1.51-5.93-3.99-7.95-7c-1.54-2.28-1.29-3.99,0.5-6.06
			c2.64-3.04,5.83-5.44,9.13-7.68c2.09-1.41,4.41-2.27,7.03-2.09c3.27,0.22,5.88,1.51,7.75,4.29
			C231.67,276.1,232.68,278.47,234.11,280.92z M217.96,274.46c-2.9,1.56-3.98,4.24-4.36,7.28c-0.52,4.21,1.12,8.73,6.47,9.94
			c4.84,1.1,9.79-2.29,10.73-7.26c-0.61,0.69-1.09,1.32-1.66,1.85c-1.99,1.85-4.24,3.33-7.05,3.23c-3.9-0.13-6.66-3.74-6.41-8.01
			C215.82,278.95,216.85,276.74,217.96,274.46z M220.06,281.38c0.93-0.28,1.6,0.11,2.29,0.36c2.74,0.99,4.54-0.15,4.71-2.99
			c0.13-2.17-1.39-3.39-3.49-2.79C221.03,276.68,220.05,278.1,220.06,281.38z"/>
		<path d="M282.65,323.07c-0.26-4.93-1.83-9.62-2.37-14.5c-0.66-5.95-1.16-11.93-1.29-17.91c-0.18-8.48-0.36-16.98,0.46-25.44
			c0.57-5.87,1.33-11.73,2.05-17.59c0.14-1.16,0.54-2.26,1.69-3.2c0.47,0.77,0.69,1.55,0.84,2.41c0.46,2.64,0.54,5.32,0.3,7.96
			c-1.04,11.54-0.78,23.11-0.83,34.67c-0.01,3.09,0.32,6.15,0.46,9.22C284.35,306.86,283.73,314.96,282.65,323.07z"/>
		<path d="M207.83,312.54c-0.8-0.97-1.81-0.96-2.66-1.12c-3.75-0.72-7.44-1.74-11.24-2.22c-0.82-0.1-1.64-0.33-2.4-0.65
			c-0.83-0.35-1.37-0.97-0.8-2.18c2.03-0.13,4.17-0.37,6.31-0.39c4-0.04,7.99,0.06,11.86,1.24c5.83,1.77,6.69,5.33,2.32,9.64
			c-1.48,1.46-3.14,2.72-4.95,3.81c-1.37-0.79-2.8-1.48-3.94-2.58c-1.62-1.57-1.43-2.92,0.65-3.84
			C204.51,313.56,206.12,313.13,207.83,312.54z"/>
		<path d="M213.96,380.74c-1.17-4.29-0.02-7.46,1.84-10.52c2.07-3.41,4.43-6.64,6.04-10.33c0.8-1.84,0.94-3.86,1.76-5.9
			c1.87,2.09,1.52,4.41,1.14,6.65c-0.29,1.72-1.1,3.3-1.89,4.86C220.25,370.6,216.72,375.13,213.96,380.74z"/>
		<path d="M311.09,325.43c0.21-0.76,0.96-0.84,1.46-1.21c2-1.5,2.05-2.8,0.04-4.36c-1.04-0.81-2.23-1.44-3.35-2.15
			c-1.89-1.2-3.89-2.25-5.5-3.84c-1.84-1.81-2.9-3.86-1.53-6.63c3.4,3.06,7.37,5.31,10.63,8.47c0.42,0.4,0.81,0.84,1.18,1.28
			C317.03,320.66,315.85,324.09,311.09,325.43z"/>
		<path d="M208.58,247.99c3.68-4.09,11.96-2.85,17.58,2.62C220.18,250.1,214.42,248.95,208.58,247.99z"/>
		<path d="M212,252.94c-7.94,2.85-15.1,6.62-21.77,12C192.89,258.76,204.19,252.01,212,252.94z"/>
		<path d="M342.69,268.58c5.44-0.88,12.81,1.68,16.73,5.82C351.1,272.58,344.14,270.16,342.69,268.58z"/>
		<path d="M249.44,383.4c-3.13,3.91-5.9,7.38-8.73,10.9C239.99,388.88,243.59,384.06,249.44,383.4z"/>
		<path d="M212.52,263.58c3.28-3.67,10.95-1.72,13.89,3.49c-2.53-0.37-4.54-1.69-6.72-2.46
			C217.41,263.81,215.03,263.81,212.52,263.58z"/>
		<path d="M219.52,266.99c-2.68,1.29-5.54,1.18-8.02,2.47c-2.36,1.23-4.45,2.92-7.21,4.42
			C206.91,268.19,214.13,265.05,219.52,266.99z"/>
		<path d="M311.96,402.1c-4.21-2.25-8.56-3.65-11.34-7.68C303.98,394,309.95,398.05,311.96,402.1z"/>
		<path d="M310.27,414.42c-1.55-0.37-2.2-1.44-2.71-2.59c-0.54-1.21-0.93-2.49-1.48-3.7c-0.54-1.2-1.2-2.34-1.86-3.59
			C308.14,406.25,309.73,408.83,310.27,414.42z"/>
		<path d="M256.17,393.34c-1.61,3.07-2.84,6.09-5.36,8.46C249.97,397.9,252.47,393.76,256.17,393.34z"/>
		<path d="M315.54,401.92c3.55,2.83,5.52,5.93,5.32,10.52C318.61,409.09,315.9,406.39,315.54,401.92z"/>
		<path d="M248.24,397.81c-0.53,2.86-2.71,4.47-4.03,6.69C243.41,399.76,244.93,397.11,248.24,397.81z"/>
	</g>
</g>
</svg>
